<svg
  viewBox="0 0 820 300"
  fill="none"
  xmlns="http://www.w3.org/2000/svg"
>
  <defs>
    <linearGradient id="tagGradient" x1="80" y1="40" x2="300" y2="220" gradientUnits="userSpaceOnUse">
      <stop stop-color="#FF9A1F" />
      <stop offset="1" stop-color="#FF5A00" />
    </linearGradient>

    <filter id="softShadow" x="-20%" y="-20%" width="140%" height="140%">
      <feDropShadow dx="0" dy="8" stdDeviation="10" flood-color="#D84E00" flood-opacity="0.18" />
    </filter>
  </defs>

  <g filter="url(#softShadow)">
    <path
      d="M110 65
         C118 48, 135 38, 155 35
         L330 35
         C350 35, 365 45, 372 62
         L388 100
         C394 115, 392 132, 383 145
         L335 215
         C326 228, 311 236, 295 236
         L120 236
         C98 236, 81 223, 74 203
         L52 139
         C47 124, 48 108, 55 95
         L110 65Z"
      fill="url(#tagGradient)"
    />
    <circle cx="318" cy="78" r="12" fill="#FFF3EA" />
    <circle cx="318" cy="78" r="6" fill="#FF7A13" />
    <path
      d="M326 70
         C360 30, 400 40, 408 68
         C413 87, 397 101, 378 108"
      stroke="#E7A36F"
      stroke-width="8"
      stroke-linecap="round"
    />
    <path d="M86 182 L148 166" stroke="#C94800" stroke-width="10" stroke-linecap="round" opacity="0.55" />
    <path d="M80 202 L165 180" stroke="#C94800" stroke-width="10" stroke-linecap="round" opacity="0.42" />
    <path d="M98 216 L178 196" stroke="#C94800" stroke-width="10" stroke-linecap="round" opacity="0.28" />
  </g>

  <text
    x="92"
    y="175"
    fill="#FFFFFF"
    font-size="110"
    font-weight="900"
    font-family="Inter, Arial, sans-serif"
    letter-spacing="-4"
  >
    OFF
  </text>

  <text
    x="390"
    y="176"
    fill="#FF6A00"
    font-size="108"
    font-weight="800"
    font-style="italic"
    font-family="Inter, Arial, sans-serif"
    letter-spacing="-3"
  >
    -ertas
  </text>

  <text
    x="445"
    y="255"
    fill="#222222"
    font-size="78"
    font-weight="500"
    font-style="italic"
    font-family="Inter, Arial, sans-serif"
    letter-spacing="-2"
  >
    da Vez
  </text>
</svg>